<svg width="93" height="28" viewBox="0 0 93 28" fill="none" xmlns="http://www.w3.org/2000/svg">
<g clip-path="url(#clip0_145_1634)">
<path d="M0.39612 7.77241H12.6855L0 17.1862V28H22.202V20.2276H9.47789L22.202 11.0262V0H0.39612V7.77241ZM34.3755 17.2924H41.9114V10.6883H34.3755V7.77241H43.4959V0H24.4628V27.9807H43.892V20.2083H34.3755V17.2924ZM52.1042 0L45.5248 27.9807H55.8142L56.4133 24.4662H61.5532L62.1522 27.9807H72.4416L65.8622 0H52.1042ZM57.4084 18.5669L58.9735 9.30759L60.5387 18.5669H57.4084ZM84.4218 19.4359V0H74.113V27.9807H92.75V19.4262H84.4218V19.4359Z" fill="black"/>
</g>
<defs>
<clipPath id="clip0_145_1634">
<rect width="92.75" height="28" fill="white"/>
</clipPath>
</defs>
</svg>
